<?xml version="1.0" standalone="no"?>
<!DOCTYPE svg PUBLIC "-//W3C//DTD SVG 20010904//EN"
 "http://www.w3.org/TR/2001/REC-SVG-20010904/DTD/svg10.dtd">
<svg version="1.0" xmlns="http://www.w3.org/2000/svg"
 width="78.000000pt" height="78.000000pt" viewBox="0 0 78.000000 78.000000"
 preserveAspectRatio="xMidYMid meet">
<metadata>
Created by potrace 1.14, written by Peter Selinger 2001-2017
</metadata>
<g transform="translate(0.000000,78.000000) scale(0.100000,-0.100000)"
fill="#000000" stroke="none">
<path d="M363 745 c-73 -31 -30 -135 47 -115 34 8 54 50 39 83 -16 36 -48 48
-86 32z"/>
<path d="M223 602 c-29 -4 -44 -25 -45 -62 -1 -34 16 -57 47 -61 50 -7 83 27
76 76 -6 38 -32 54 -78 47z"/>
<path d="M512 597 c-23 -10 -41 -51 -34 -80 2 -10 18 -25 35 -32 26 -11 36
-11 58 1 72 37 16 144 -59 111z"/>
<path d="M70 450 c-34 -8 -54 -50 -39 -83 16 -36 48 -48 86 -32 73 31 30 135
-47 115z"/>
<path d="M390 451 c0 -8 -6 -11 -17 -7 -13 5 -10 -1 7 -19 l25 -27 6 24 5 23
8 -25 c5 -14 8 -28 7 -32 -1 -5 4 -8 9 -8 22 0 -1 55 -24 57 -5 1 -13 7 -17
15 -7 11 -9 11 -9 -1z"/>
<path d="M663 447 c-30 -13 -45 -51 -32 -81 36 -79 148 -30 114 51 -14 33 -47
46 -82 30z"/>
<path d="M339 428 c-9 -26 -4 -69 8 -80 19 -16 67 -23 58 -8 -3 6 -11 8 -16 5
-19 -12 -8 7 17 30 15 14 22 25 15 25 -7 0 -23 -12 -37 -27 -29 -32 -54 -20
-34 17 6 12 14 19 18 16 3 -4 0 -12 -6 -18 -7 -7 -12 -16 -12 -20 0 -15 15 -8
28 13 10 16 10 24 1 35 -10 12 -37 20 -40 12z"/>
<path d="M413 373 c-17 -6 -16 -20 1 -26 8 -3 19 0 26 7 12 15 -5 27 -27 19z"/>
<path d="M197 277 c-31 -39 -6 -96 42 -93 38 2 63 24 55 49 -4 14 -3 17 6 12
7 -4 4 4 -5 19 -10 14 -20 26 -24 27 -3 0 -17 2 -31 5 -17 2 -31 -3 -43 -19z
m57 1 c-3 -4 -12 -8 -20 -8 -8 0 -14 4 -14 8 0 4 9 8 19 8 11 0 17 -4 15 -8z
m-14 -23 c5 3 10 1 10 -4 0 -14 -27 -14 -35 -1 -4 6 -11 7 -17 4 -7 -4 -8 -2
-4 5 6 9 11 9 21 1 8 -7 19 -9 25 -5z m50 -36 c0 -5 -5 -9 -11 -9 -5 0 -7 5
-4 10 3 6 2 10 -3 10 -16 0 -22 -13 -11 -27 9 -9 8 -13 0 -13 -6 0 -11 5 -11
11 0 5 -4 7 -10 4 -5 -3 -10 -1 -10 5 0 6 -5 8 -10 5 -6 -4 -7 -11 -4 -17 4
-7 2 -8 -5 -4 -6 4 -8 12 -5 18 4 6 0 15 -7 20 -14 10 2 6 38 -9 7 -3 16 2 19
11 5 13 9 14 20 5 8 -6 14 -15 14 -20z"/>
<path d="M502 284 c-7 -8 -9 -14 -5 -14 4 0 2 -4 -6 -9 -9 -6 -11 -16 -5 -32
4 -13 7 -27 6 -31 -1 -5 -1 -8 1 -8 68 -11 79 -11 73 -1 -4 7 1 11 13 11 15 0
21 6 21 21 0 11 -5 17 -10 14 -6 -4 -8 -11 -5 -16 12 -18 -7 -8 -26 14 -10 12
-18 17 -19 10 0 -6 4 -14 10 -18 11 -7 2 -35 -12 -35 -7 0 -6 5 1 13 6 8 8 17
4 20 -9 10 -25 9 -19 -1 3 -5 -2 -9 -10 -9 -9 0 -11 4 -5 10 5 5 7 17 4 26 -4
12 -3 13 5 2 7 -9 12 -10 16 -2 4 6 0 14 -8 17 -9 3 -13 10 -11 15 3 5 19 -6
35 -24 27 -29 29 -30 27 -9 -1 12 -7 22 -14 22 -7 0 -13 5 -13 10 0 7 7 7 20
0 11 -6 18 -15 15 -21 -4 -5 -1 -9 4 -9 16 0 13 16 -4 30 -22 18 -68 21 -83 4z"/>
<path d="M395 131 c-3 -5 0 -13 6 -17 8 -5 9 -3 4 6 -6 10 -4 12 9 7 10 -4 15
-3 11 3 -8 13 -22 13 -30 1z"/>
<path d="M354 100 c0 -13 4 -16 10 -10 7 7 7 13 0 20 -6 6 -10 3 -10 -10z"/>
<path d="M393 58 c-2 -16 1 -18 10 -9 7 7 8 14 1 21 -6 6 -10 2 -11 -12z"/>
<path d="M428 73 c7 -3 16 -2 19 1 4 3 -2 6 -13 5 -11 0 -14 -3 -6 -6z"/>
</g>
</svg>
