<svg width="135" height="38" fill="none" xmlns="http://www.w3.org/2000/svg"><path fill-rule="evenodd" clip-rule="evenodd" d="M135 9V5h-2v4h2ZM51 34v-8l2 2 3 1 3-1 2-2 1-3 1-3-1-3-1-3-2-2-4-1-3 1-2 2v-2h-4v22h5Zm3-9h-2l-1-1v-2a9 9 0 0 1 0-4v-2l1-1h2a3 3 0 0 1 3 1l1 2a9 9 0 0 1 0 4l-1 2-1 1h-2Zm19 3a10 10 0 0 1-5 0l-2-1-1-1v-5l1-1 2-1a19 19 0 0 1 4-1h3l1-2-1-1-1-1h-1l-2 1-1 2h-5l1-3 2-2 2-1a14 14 0 0 1 5 0l3 1 1 1 1 3v11l1 1h-5a7 7 0 0 1 0-1l-3 1Zm-1-2-1-1h-1l-1-1v-2h1l1-1a8 8 0 0 1 2 0 14 14 0 0 0 2-1h1v3l-1 1-1 1-2 1Zm18 7-4 1a20 20 0 0 1-3 0v-4a280 280 0 0 0 4-1l1-1-1-1-5-15h4l4 11 4-11h4l-6 18-2 3Zm15-4 2-1a7 7 0 0 0 3-2l1-1v2l1 1h2v-1h-2V16l-1-4-5-1-4 2-2 4h1l2-4 3-1 2 1h2a3 3 0 0 1 1 3v1l-1 1-1 1h-6l-2 1-1 2-1 2 2 3 4 2Zm-4-2h7l2-2 1-2v-4l-2 1h-5l-2 1-1 1-1 2 1 3Zm16 7v-9l3 3 3 1 3-1 3-2 1-3a13 13 0 0 0 0-6l-1-3a7 7 0 0 0-6-3 6 6 0 0 0-4 2l-1 1-1 1v-3h-1v22h1Zm3-7h6l2-2 1-2a11 11 0 0 0 0-6l-1-2-2-2-3-1-3 1-1 2-2 2a12 12 0 0 0 0 6l1 2 2 2Zm13-15h2v16h-2V12Z" fill="#FBFCFE"/><circle cx="19.1" cy="5" r="3" transform="rotate(45 19 5)" fill="#FBFCFE"/><circle cx="26.2" cy="12.1" r="3" transform="rotate(45 26 12)" fill="#FBFCFE"/><circle cx="33.3" cy="19.1" r="3" transform="rotate(45 33 19)" fill="#FBFCFE"/><circle cx="12.1" cy="12.1" r="3" transform="rotate(45 12 12)" fill="#FBFCFE"/><circle opacity=".5" cx="19.1" cy="19.1" r="3" transform="rotate(45 19 19)" fill="#FBFCFE"/><circle opacity=".5" cx="26.2" cy="26.2" r="3" transform="rotate(45 26 26)" fill="#FBFCFE"/><circle cx="5" cy="19.1" r="3" transform="rotate(45 5 19)" fill="#FBFCFE"/><circle opacity=".5" cx="12.1" cy="26.2" r="3" transform="rotate(45 12 26)" fill="#FBFCFE"/><circle opacity=".3" cx="19.1" cy="33.3" r="3" transform="rotate(45 19 33)" fill="#FBFCFE"/></svg>